<svg id="Слой_1" data-name="Слой 1" xmlns="http://www.w3.org/2000/svg" width="61.16mm" height="20.15mm" viewBox="0 0 173.37 57.11">
  <title>Монтажная область 8</title>
  <g>
    <g>
      <path d="M46.38,14.55c3.4,0,6,1.73,6.88,4.62l.05.15,3.38-.87-.08-.17A10.76,10.76,0,0,0,46.28,11.8c-6.87,0-11.49,4.82-11.49,12,0,6.73,4.56,11.43,11.09,11.43,4,0,6.67-1.67,7.87-3.27v2.71h2.88V22.73H46.09v2.78h7.66v.15c0,4.59-3.85,6.69-7.44,6.69s-8-2.33-8-8.9C38.35,19,40.83,14.55,46.38,14.55Z" style="fill: #f39200"/>
      <path d="M79.6,18.93c0-4.17-2.66-6.57-7.29-6.57H62.24v22.3h3.19V25.32h5.42l6,9.27,0,.07h3.87l-6.19-9.57C78.71,24.31,79.6,21.32,79.6,18.93ZM65.43,15.11h6.72c2.65,0,4.23,1.43,4.23,3.82s-1.51,3.61-4.63,3.61H65.43Z" style="fill: #f39200"/>
      <path d="M94.07,11.8c-5.19,0-11.25,3.06-11.25,11.68,0,8.11,5.6,11.74,11.16,11.74,8.34,0,11.3-6.41,11.3-11.9C105.28,16.43,100.78,11.8,94.07,11.8Zm7.71,11.52c0,5.81-2.86,9.27-7.65,9.27s-7.81-3.48-7.81-9.08c0-2.12.56-9,7.75-9S101.78,21.25,101.78,23.32Z" style="fill: #f39200"/>
      <polygon points="115.33 30.36 109.66 12.47 109.63 12.36 106.17 12.36 113.68 34.55 113.72 34.66 116.85 34.66 124.71 12.36 121.25 12.36 115.33 30.36" style="fill: #4a5c46"/>
      <rect x="126.78" y="12.36" width="3.28" height="22.3" style="fill: #4a5c46"/>
      <rect x="27.33" y="12.36" width="3.28" height="22.3" style="fill: #f39200"/>
      <path d="M146.38,22l-4.08-1c-2.64-.63-4.27-1.4-4.27-3.3,0-3.14,4-3.3,4.85-3.3,5.35,0,5.5,4.05,5.5,4.51v.18l3.32-.21,0-.18a7.31,7.31,0,0,0-2.86-5.21,9.71,9.71,0,0,0-6.17-1.68,9,9,0,0,0-5.8,1.84,5.64,5.64,0,0,0-2.14,4.42c0,3.44,2.27,5.3,7.85,6.42l2,.4c2.49.5,4,1.25,4,3.49,0,4-4.43,4.22-5.32,4.22-5.19,0-6.08-3.47-6.15-5.54v-.17l-3.48.44,0,.21A7.91,7.91,0,0,0,137,33.67a11.65,11.65,0,0,0,6.1,1.55c3.08,0,5.39-.79,7.05-2.41A6.25,6.25,0,0,0,152,28.18C152,26,151.06,23.09,146.38,22Z" style="fill: #4a5c46"/>
      <path d="M165.25,12.36H162l-8.5,22.3h3.46l2.46-6.72h8.15l2.35,6.61,0,.11h3.43l-8.08-22.2Zm1.31,12.79h-6.11l3.13-8.54Z" style="fill: #4a5c46"/>
      <g>
        <path d="M10,10.44a.66.66,0,0,0-.2-.06L9,10.11,8.71,10l-.84-.31a35.46,35.46,0,0,0-.1,4.94c.05.87.13,1.75.24,2.63a13,13,0,0,1,2.58-3c0-.56,0-1.13,0-1.69s0-1.29.09-1.93Z" style="fill: #f39200"/>
        <path d="M4.25,8a39.92,39.92,0,0,0-.34,7.24A27.11,27.11,0,0,0,6,25c0-.25,0-.5,0-.76a13.09,13.09,0,0,1,1.12-5.31,30.15,30.15,0,0,1-.43-5.76A36.92,36.92,0,0,1,7,9.35,24.71,24.71,0,0,1,4.25,8Z" style="fill: #f39200"/>
        <path d="M27,13.76C23.57,9.9,18.19,9,10.87,6.65l-.18-.05L9.2,6.11C2.43,3.86,1.69,0,1.69,0,1.36,3.26.83,5.21.51,7.61a42.34,42.34,0,0,0-.46,8.18c0,.39.05.78.08,1.17a1.79,1.79,0,0,1,0,.23c0,.39.08.79.13,1.18,0,0,0,.07,0,.1.05.4.11.8.17,1.19v.08c.07.42.15.83.24,1.25,0,0,0,.05,0,.07a23,23,0,0,0,.68,2.5.06.06,0,0,0,0,0,16.66,16.66,0,0,0,2.42,4.75c1.49,2,3.48,3.18,5.38,4.54a13.15,13.15,0,0,1-2.88-5.75,20.16,20.16,0,0,1-2.62-5.75,28.31,28.31,0,0,1-.86-7.67,40.28,40.28,0,0,1,.77-7.1A24.05,24.05,0,0,0,8,8.88c.34.14.68.26,1,.38l.25.09.8.27a.76.76,0,0,1,.2.06c1.94.61,3.93,1.12,5.88,1.74h0a21.78,21.78,0,0,1,8.37,4.39,11,11,0,0,1,2.77,10.66,9,9,0,0,1-8.18,5.82,8.14,8.14,0,0,1,0-16.27,8.76,8.76,0,0,1,1,.07,25,25,0,0,1-3.47-2.72,11.06,11.06,0,0,0,2.44,21.85c6.12,0,11.48-4.95,11.48-11.07C30.62,20.48,30.09,17.25,27,13.76Z" style="fill: #f39200"/>
      </g>
    </g>
    <g>
      <path d="M14.91,53.84l-1.08-3H10.06L9,53.84H7.55L11.32,44h1.37l3.6,9.88ZM12,45.58l-1.51,4.13h3Z" style="fill: #f39200"/>
      <path d="M24.82,54a2.75,2.75,0,0,1-3.08,3.08,2.69,2.69,0,0,1-3-2.45H20c0,1,.76,1.54,1.82,1.54,1.4,0,1.84-.74,1.84-2V52.88a2.59,2.59,0,0,1-2.18,1.17c-1.68,0-3.05-1.26-3.05-3.47,0-1.54.7-3.54,3.07-3.54a2.78,2.78,0,0,1,2.16,1.1v-.89h1.16Zm-3.2-5.92c-1.13,0-2,.85-2,2.5,0,1.4.64,2.5,2.09,2.5s2-1.17,2-2.59A2.12,2.12,0,0,0,21.62,48.05Z" style="fill: #f39200"/>
      <path d="M29.16,47.25v1.2a2.22,2.22,0,0,1,.61-.75,2.51,2.51,0,0,1,1.64-.54v1.21a2.1,2.1,0,0,0-.43,0,1.72,1.72,0,0,0-1.73,1.25,4.76,4.76,0,0,0-.09,1.22v3.05H28V47.25Z" style="fill: #f39200"/>
      <path d="M33.87,45.24V44H35v1.28Zm0,8.6V47.25H35v6.59Z" style="fill: #f39200"/>
      <path d="M37.85,50.17V49.11h3.92v1.06Z" style="fill: #f39200"/>
      <path d="M46.24,52.42c0,.47.14.65.49.65a2.41,2.41,0,0,0,.7-.15v.92a6.34,6.34,0,0,1-1.07.12c-1.09,0-1.27-.44-1.27-1.19v-4.6H44v-.92h1.07V45.16h1.15v2.09h1.19v.92H46.24Z" style="fill: #f39200"/>
      <path d="M51.32,47.25v1.2a2.22,2.22,0,0,1,.61-.75,2.51,2.51,0,0,1,1.64-.54v1.21a2.1,2.1,0,0,0-.43,0,1.72,1.72,0,0,0-1.73,1.25,4.76,4.76,0,0,0-.09,1.22v3.05H50.2V47.25Z" style="fill: #f39200"/>
      <path d="M59.91,49.67c0-.62,0-1.78-1.47-1.78-.92,0-1.42.46-1.42,1.29v.1l-1.17-.07A2.25,2.25,0,0,1,58.39,47a3.48,3.48,0,0,1,1.65.39c.94.53,1,1.22,1,2.39v2.33c0,.39,0,.77.51.77a1.28,1.28,0,0,0,.34-.06v.94a2.18,2.18,0,0,1-.72.13,1.38,1.38,0,0,1-.7-.17A1.37,1.37,0,0,1,60,53,2.92,2.92,0,0,1,57.76,54a2,2,0,0,1-2.24-1.9,1.75,1.75,0,0,1,.71-1.42A5.48,5.48,0,0,1,58.91,50l1-.07ZM57.56,51.1a1.14,1.14,0,0,0-.81,1c0,.49.36,1,1.25,1a1.8,1.8,0,0,0,1.93-2v-.52A15.32,15.32,0,0,0,57.56,51.1Z" style="fill: #f39200"/>
      <path d="M69.31,53.84V53a2.72,2.72,0,0,1-2.26,1c-1.93,0-3-1.48-3-3.53C64,48,65.7,47,67,47a2.82,2.82,0,0,1,2.27,1.08V44h1.12v9.88Zm-2-.78c1,0,2.06-.59,2.06-2.6a2.14,2.14,0,0,0-2-2.4c-1.52,0-2.09,1.26-2.09,2.51S65.68,53.06,67.28,53.06Z" style="fill: #f39200"/>
      <path d="M73.7,45.24V44h1.08v1.28Zm0,8.6V47.25h1.08v6.59Z" style="fill: #f39200"/>
      <path d="M82.31,53.84V49.52a1.35,1.35,0,0,0-1.5-1.43,1.73,1.73,0,0,0-1.75,1.85v3.9H77.94V47.25h1.12v1A2.41,2.41,0,0,1,83,48a2.74,2.74,0,0,1,.41,1.72v4.17Z" style="fill: #f39200"/>
      <path d="M92.7,54a2.75,2.75,0,0,1-3.08,3.08,2.71,2.71,0,0,1-3-2.45h1.27c0,1,.75,1.54,1.82,1.54,1.4,0,1.83-.74,1.83-2V52.88a2.59,2.59,0,0,1-2.17,1.17c-1.68,0-3.05-1.26-3.05-3.47C86.32,49,87,47,89.38,47a2.78,2.78,0,0,1,2.16,1.1v-.89H92.7Zm-3.19-5.92c-1.13,0-2.05.85-2.05,2.5,0,1.4.65,2.5,2.09,2.5s2-1.17,2-2.59S90.71,48.05,89.51,48.05Z" style="fill: #f39200"/>
      <path d="M110.6,50.26a4.8,4.8,0,0,1-4.88,3.84c-3,0-4.83-2.11-4.83-5.2s1.86-5.2,5-5.2a4.38,4.38,0,0,1,4.51,3l-1.33.26a3.17,3.17,0,0,0-3.19-2.24c-2.26,0-3.53,1.67-3.53,4.08,0,2.83,1.55,4.16,3.54,4.16a3.19,3.19,0,0,0,3.28-2.9Z" style="fill: #f39200"/>
      <path d="M116.19,47a3.14,3.14,0,0,1,3.14,3.44c0,2.37-1.47,3.57-3.23,3.57a3.15,3.15,0,0,1-3.24-3.5A3.25,3.25,0,0,1,116.19,47Zm-.11,6.12c1.35,0,2-1,2-2.76,0-1.14-.45-2.47-1.95-2.47-2.09,0-2.1,2.26-2.1,2.68C114.08,51.39,114.32,53.16,116.08,53.16Z" style="fill: #f39200"/>
      <path d="M130.08,53.84V49.45c0-1.17-.77-1.36-1.2-1.36a1.74,1.74,0,0,0-1.58,1.09,3.11,3.11,0,0,0-.09,1v3.71h-1.09v-4.3c0-1.3-.84-1.44-1.22-1.44a1.81,1.81,0,0,0-1.57,1,2.21,2.21,0,0,0-.1.84v3.92h-1V47.25h1v.89a2.62,2.62,0,0,1,2-1.1,1.85,1.85,0,0,1,1.38.61,3.56,3.56,0,0,1,.4.61A3.21,3.21,0,0,1,129.22,47a2,2,0,0,1,1.52.73,2.49,2.49,0,0,1,.45,1.72v4.35Z" style="fill: #f39200"/>
      <path d="M135.48,47.25v.94A3.09,3.09,0,0,1,137.84,47c1.36,0,3,1.06,3,3.53,0,1.51-.73,3.48-3.1,3.48a2.73,2.73,0,0,1-2.23-1V57h-1.09V47.25Zm2.08,5.82c1.38,0,2.1-1,2.1-2.55,0-1.77-1.09-2.43-2-2.43-1.28,0-2.15.94-2.15,2.57S136.27,53.07,137.56,53.07Z" style="fill: #f39200"/>
      <path d="M147.6,49.67c0-.62,0-1.78-1.47-1.78-.93,0-1.43.46-1.43,1.29v.1l-1.17-.07A2.25,2.25,0,0,1,146.07,47a3.43,3.43,0,0,1,1.65.39c.94.53,1,1.22,1,2.39v2.33c0,.39,0,.77.5.77a1.28,1.28,0,0,0,.34-.06v.94a2.18,2.18,0,0,1-.72.13,1.38,1.38,0,0,1-.7-.17,1.42,1.42,0,0,1-.45-.81A2.9,2.9,0,0,1,145.44,54a2,2,0,0,1-2.24-1.9,1.75,1.75,0,0,1,.71-1.42,5.48,5.48,0,0,1,2.68-.75l1-.07Zm-2.36,1.43a1.14,1.14,0,0,0-.81,1c0,.49.36,1,1.25,1a1.8,1.8,0,0,0,1.93-2v-.52A15.32,15.32,0,0,0,145.24,51.1Z" style="fill: #f39200"/>
      <path d="M156.42,53.84V49.52a1.36,1.36,0,0,0-1.5-1.43,1.73,1.73,0,0,0-1.75,1.85v3.9h-1.12V47.25h1.12v1A2.34,2.34,0,0,1,155.24,47a2.37,2.37,0,0,1,1.88.91,2.8,2.8,0,0,1,.4,1.72v4.17Z" style="fill: #f39200"/>
      <path d="M165.8,47.25,163,55.05c-.53,1.5-.89,2.06-2.06,2.06a3.74,3.74,0,0,1-1-.14V56a2.13,2.13,0,0,0,.74.11c.66,0,.91-.27,1.29-1.37l.28-.81L160,47.25h1.19l1.65,5.23,1.75-5.23Z" style="fill: #f39200"/>
    </g>
  </g>
</svg>
