<svg width="14" height="14" viewBox="0 0 14 14" fill="none" xmlns="http://www.w3.org/2000/svg">
<path d="M10.2406 13.8601L10.9419 13.1588C11.0356 13.0653 11.0823 12.9576 11.0823 12.8359C11.0823 12.7145 11.0356 12.6069 10.9419 12.5135L5.42885 7.00007L10.9418 1.48692C11.0354 1.39342 11.0821 1.28582 11.0821 1.16425C11.0821 1.04265 11.0354 0.93504 10.9418 0.841585L10.2404 0.14033C10.147 0.0466783 10.0394 -4.55862e-08 9.91777 -5.09019e-08C9.79626 -5.62134e-08 9.68866 0.0468256 9.5952 0.14033L3.05798 6.6774C2.96448 6.77086 2.91775 6.87851 2.91775 7.00007C2.91775 7.12163 2.96448 7.22909 3.05798 7.3225L9.5952 13.8601C9.68871 13.9536 9.79631 14 9.91777 14C10.0394 14 10.147 13.9536 10.2406 13.8601Z" fill="#2F2F2F"/>
</svg>
